<?xml version="1.0" encoding="UTF-8"?>
<svg id="_レイヤー_1" data-name="レイヤー 1" xmlns="http://www.w3.org/2000/svg" viewBox="0 0 420 150">
  <defs>
    <style>
      .cls-1 {
        fill: #fff;
      }
    </style>
  </defs>
  <path class="cls-1" d="M20,94.8c-12.73,0-19.1-8.75-19.1-26.25s6.37-26.98,19.1-26.98,19.1,8.99,19.1,26.98-6.37,26.25-19.1,26.25Zm0-6.71c7.53,0,11.3-6.51,11.3-19.54s-3.77-20.27-11.3-20.27-11.3,6.76-11.3,20.27,3.77,19.54,11.3,19.54Z"/>
  <path class="cls-1" d="M60.79,94.8c-5.06,0-8.89-1.66-11.5-4.99-2.61-3.33-3.92-8.23-3.92-14.69s1.31-11.79,3.92-15.24c2.61-3.45,6.45-5.18,11.5-5.18,3.01,0,5.46,.68,7.33,2.04,1.87,1.36,2.96,3.26,3.28,5.69h2.99l-2.62,11.01c0-3.99-.78-7.01-2.35-9.08-1.57-2.06-3.87-3.1-6.91-3.1s-5.47,1.17-7.07,3.5c-1.6,2.33-2.41,5.78-2.41,10.35,0,4.33,.8,7.59,2.41,9.81,1.6,2.21,3.96,3.32,7.07,3.32s5.34-1.03,6.91-3.1c1.57-2.07,2.35-5.09,2.35-9.08l2.62,11.01h-3.35c-.24,2.43-1.27,4.33-3.08,5.69-1.81,1.36-4.2,2.04-7.16,2.04Zm-12.29,16.7l-.36-7.07,12.39-.36c3.91-.12,6.76-1.2,8.53-3.24,1.77-2.04,2.67-5.04,2.7-9v-28.21l.73-8.17h7v35.21c0,6.88-1.57,11.96-4.7,15.24-3.14,3.28-8.13,5.03-14.98,5.25l-11.3,.36Z"/>
  <path class="cls-1" d="M101.8,94.8c-4.03,0-7.16-.97-9.37-2.92-2.21-1.94-3.32-4.69-3.32-8.24,0-4.08,1.52-7.22,4.58-9.41,3.05-2.19,7.36-3.28,12.92-3.28,2.31,0,4.37,.14,6.18,.42,1.81,.28,3.42,.7,4.83,1.26l-1.6,5.25c-1.63-.36-3.22-.58-4.78-.64-1.56-.06-3.15-.09-4.78-.09-6.71,0-10.06,2.04-10.06,6.12,0,1.7,.58,3.01,1.73,3.94,1.15,.92,2.79,1.39,4.9,1.39,2.41,0,4.42-.41,6.03-1.24,1.62-.83,2.83-1.88,3.63-3.17,.8-1.29,1.2-2.61,1.2-3.97v-4.23l2.26,9.92h-3.06l1.24-1.17c0,2.24-.52,4.1-1.55,5.6-1.03,1.5-2.49,2.61-4.36,3.35-1.87,.74-4.08,1.11-6.63,1.11Zm13.63-.37l-.51-11.45-1.02-3.21v-9.99c0-2.58-.91-4.47-2.72-5.67-1.81-1.2-4.5-1.85-8.07-1.95l-9.26-.26,.73-6.85,7.8,.11c6.39,.1,11.14,1.48,14.24,4.14s4.65,6.54,4.65,11.65v16.11l6.56,.8v6.2l-12.39,.36Z"/>
  <path class="cls-1" d="M135.49,94.08V55.43h7l.73,8.17v30.48h-7.73Zm23.77,0v-25.15c0-2.33-.61-4.13-1.82-5.4-1.22-1.26-2.92-1.9-5.1-1.9-6.08,0-9.11,3.57-9.11,10.72l-2.26-9.92h2.99c.22-2.6,1.17-4.54,2.84-5.81,1.68-1.28,4.13-1.91,7.36-1.91,4.08,0,7.24,1.24,9.48,3.72,2.24,2.48,3.35,5.98,3.35,10.5v25.15h-7.73Z"/>
  <path class="cls-1" d="M178.94,94.08v-6.78h15.46v6.78h-15.46Zm2.19-31.86v-6.78h20.27v6.78h-20.27Zm16.15-12.91c-1.48,0-2.75-.53-3.81-1.59s-1.59-2.33-1.59-3.81,.53-2.78,1.59-3.83,2.33-1.57,3.81-1.57,2.78,.52,3.83,1.57c1.04,1.04,1.57,2.32,1.57,3.83s-.52,2.75-1.57,3.81c-1.05,1.06-2.32,1.59-3.83,1.59Zm-3.61,44.77V57.62h7.73v36.45h-7.73Zm7,0v-6.78h12.61v6.78h-12.61Z"/>
  <path class="cls-1" d="M242.44,94.8c-6.59,0-11.67-1.73-15.26-5.2s-5.38-8.44-5.38-14.93,1.69-11.23,5.08-14.73,8.23-5.25,14.53-5.25c3.77,0,6.99,.7,9.68,2.1,2.68,1.4,4.6,3.37,5.74,5.92l-5.94,4.48c-1.09-1.77-2.49-3.15-4.19-4.12-1.7-.97-3.56-1.46-5.58-1.46-3.65,0-6.48,1.1-8.49,3.3-2.02,2.2-3.03,5.33-3.03,9.39,0,4.4,1.18,7.76,3.55,10.08,2.37,2.32,5.75,3.48,10.15,3.48,1.8,0,3.6-.08,5.4-.25,1.8-.17,3.55-.4,5.25-.69l.88,6.78c-1.99,.44-4.05,.73-6.18,.88-2.13,.15-4.2,.22-6.22,.22Z"/>
  <path class="cls-1" d="M276.78,94.8c-4.03,0-7.16-.97-9.37-2.92-2.21-1.94-3.32-4.69-3.32-8.24,0-4.08,1.53-7.22,4.58-9.41,3.05-2.19,7.36-3.28,12.92-3.28,2.31,0,4.37,.14,6.18,.42,1.81,.28,3.42,.7,4.83,1.26l-1.6,5.25c-1.63-.36-3.22-.58-4.78-.64-1.56-.06-3.15-.09-4.78-.09-6.71,0-10.06,2.04-10.06,6.12,0,1.7,.58,3.01,1.73,3.94,1.15,.92,2.79,1.39,4.9,1.39,2.41,0,4.42-.41,6.03-1.24s2.83-1.88,3.63-3.17c.8-1.29,1.2-2.61,1.2-3.97v-4.23l2.26,9.92h-3.06l1.24-1.17c0,2.24-.52,4.1-1.55,5.6s-2.49,2.61-4.36,3.35c-1.87,.74-4.08,1.11-6.63,1.11Zm13.63-.37l-.51-11.45-1.02-3.21v-9.99c0-2.58-.91-4.47-2.71-5.67-1.81-1.2-4.5-1.85-8.08-1.95l-9.26-.26,.73-6.85,7.8,.11c6.39,.1,11.14,1.48,14.24,4.14,3.1,2.66,4.65,6.54,4.65,11.65v16.11l6.56,.8v6.2l-12.39,.36Z"/>
  <path class="cls-1" d="M310.18,94.08V39.39h7.73v54.68h-7.73Zm5.47-14.66v-6.93h4.38c3.21,0,5.84-.55,7.91-1.66,2.07-1.11,3.69-2.91,4.87-5.41,1.18-2.5,2.05-5.83,2.61-9.99h8.02c-1.02,8.04-3.31,14.05-6.87,18.03-3.56,3.97-8.46,5.96-14.71,5.96h-6.2Zm20.71,14.66l-11.01-18.81,7.29-2.99,13.27,21.8h-9.55Z"/>
  <path class="cls-1" d="M373.32,94.8c-6.59,0-11.67-1.73-15.26-5.2-3.58-3.46-5.38-8.44-5.38-14.93s1.52-11.23,4.56-14.73c3.04-3.5,7.33-5.25,12.87-5.25,5.22,0,9.27,1.58,12.12,4.74,2.86,3.16,4.28,7.75,4.28,13.78,0,1.77-.07,3.43-.22,4.96h-27.12v-5.91h20.34c0-3.48-.83-6.14-2.48-8-1.65-1.86-3.94-2.79-6.85-2.79-3.28,0-5.83,1.12-7.64,3.35-1.81,2.24-2.72,5.4-2.72,9.48,0,4.47,1.25,7.87,3.74,10.21,2.49,2.33,6.03,3.5,10.62,3.5,1.6,0,3.18-.09,4.74-.27,1.55-.18,3.13-.43,4.74-.75l.95,6.78c-2.28,.44-4.37,.72-6.27,.84-1.9,.12-3.57,.18-5.03,.18Z"/>
  <path class="cls-1" d="M413.71,94.8c-1.48,0-2.75-.53-3.81-1.59-1.06-1.06-1.58-2.33-1.58-3.81s.53-2.78,1.58-3.83c1.06-1.04,2.33-1.57,3.81-1.57s2.78,.52,3.83,1.57,1.57,2.32,1.57,3.83-.52,2.75-1.57,3.81c-1.04,1.06-2.32,1.59-3.83,1.59Z"/>
</svg>